<svg width="27" height="27" viewBox="0 0 27 27" fill="none" xmlns="http://www.w3.org/2000/svg">
<path d="M25.515 18.57C23.67 18.57 21.885 18.27 20.22 17.73C19.9592 17.6416 19.6787 17.6285 19.4107 17.6921C19.1428 17.7558 18.8982 17.8937 18.705 18.09L16.35 21.045C12.105 19.02 8.13 15.195 6.015 10.8L8.94 8.31C9.345 7.89 9.465 7.305 9.3 6.78C8.745 5.115 8.46 3.33 8.46 1.485C8.46 0.675 7.785 0 6.975 0H1.785C0.975 0 0 0.36 0 1.485C0 15.42 11.595 27 25.515 27C26.58 27 27 26.055 27 25.23V20.055C27 19.245 26.325 18.57 25.515 18.57Z" fill="black"/>
</svg>
